<mxfile host="app.diagrams.net" modified="2023-07-09T06:58:08.721Z" agent="Mozilla/5.0 (Windows NT 10.0; Win64; x64) AppleWebKit/537.36 (KHTML, like Gecko) Chrome/114.0.0.0 Safari/537.36" etag="d0_wyICWBniizGIlu93c" version="21.6.1" type="github">
  <diagram name="Page-1" id="2YBvvXClWsGukQMizWep">
    <mxGraphModel dx="1050" dy="577" grid="1" gridSize="10" guides="1" tooltips="1" connect="1" arrows="1" fold="1" page="1" pageScale="1" pageWidth="850" pageHeight="1100" math="0" shadow="0">
      <root>
        <mxCell id="0" />
        <mxCell id="1" parent="0" />
        <mxCell id="5PVqohLn76PKxdNZeTSt-1" value="" style="endArrow=none;dashed=1;html=1;rounded=0;entryX=0.5;entryY=0.5;entryDx=0;entryDy=0;entryPerimeter=0;" edge="1" parent="1" source="5PVqohLn76PKxdNZeTSt-29" target="5PVqohLn76PKxdNZeTSt-2">
          <mxGeometry width="50" height="50" relative="1" as="geometry">
            <mxPoint x="186.74" y="560" as="sourcePoint" />
            <mxPoint x="186.74" y="240" as="targetPoint" />
          </mxGeometry>
        </mxCell>
        <mxCell id="5PVqohLn76PKxdNZeTSt-2" value="Customer" style="shape=umlActor;verticalLabelPosition=bottom;verticalAlign=top;html=1;outlineConnect=0;" vertex="1" parent="1">
          <mxGeometry x="166.74" y="130" width="30" height="60" as="geometry" />
        </mxCell>
        <mxCell id="5PVqohLn76PKxdNZeTSt-3" value="SK Airlines Website" style="shape=umlLifeline;perimeter=lifelinePerimeter;whiteSpace=wrap;html=1;container=0;dropTarget=0;collapsible=0;recursiveResize=0;outlineConnect=0;portConstraint=eastwest;newEdgeStyle={&quot;edgeStyle&quot;:&quot;elbowEdgeStyle&quot;,&quot;elbow&quot;:&quot;vertical&quot;,&quot;curved&quot;:0,&quot;rounded&quot;:0};" vertex="1" parent="1">
          <mxGeometry x="291.74" y="110" width="100" height="480" as="geometry" />
        </mxCell>
        <mxCell id="5PVqohLn76PKxdNZeTSt-4" value="" style="html=1;points=[];perimeter=orthogonalPerimeter;outlineConnect=0;targetShapes=umlLifeline;portConstraint=eastwest;newEdgeStyle={&quot;edgeStyle&quot;:&quot;elbowEdgeStyle&quot;,&quot;elbow&quot;:&quot;vertical&quot;,&quot;curved&quot;:0,&quot;rounded&quot;:0};" vertex="1" parent="5PVqohLn76PKxdNZeTSt-3">
          <mxGeometry x="45" y="80" width="10" height="380" as="geometry" />
        </mxCell>
        <mxCell id="5PVqohLn76PKxdNZeTSt-5" value="Credentials Authenticator" style="shape=umlLifeline;perimeter=lifelinePerimeter;whiteSpace=wrap;html=1;container=0;dropTarget=0;collapsible=0;recursiveResize=0;outlineConnect=0;portConstraint=eastwest;newEdgeStyle={&quot;edgeStyle&quot;:&quot;elbowEdgeStyle&quot;,&quot;elbow&quot;:&quot;vertical&quot;,&quot;curved&quot;:0,&quot;rounded&quot;:0};" vertex="1" parent="1">
          <mxGeometry x="441.74" y="110" width="100" height="300" as="geometry" />
        </mxCell>
        <mxCell id="5PVqohLn76PKxdNZeTSt-6" value="" style="html=1;points=[];perimeter=orthogonalPerimeter;outlineConnect=0;targetShapes=umlLifeline;portConstraint=eastwest;newEdgeStyle={&quot;edgeStyle&quot;:&quot;elbowEdgeStyle&quot;,&quot;elbow&quot;:&quot;vertical&quot;,&quot;curved&quot;:0,&quot;rounded&quot;:0};" vertex="1" parent="5PVqohLn76PKxdNZeTSt-5">
          <mxGeometry x="45" y="115" width="10" height="165" as="geometry" />
        </mxCell>
        <mxCell id="5PVqohLn76PKxdNZeTSt-7" value="Flight Tracker API" style="shape=umlLifeline;perimeter=lifelinePerimeter;whiteSpace=wrap;html=1;container=0;dropTarget=0;collapsible=0;recursiveResize=0;outlineConnect=0;portConstraint=eastwest;newEdgeStyle={&quot;edgeStyle&quot;:&quot;elbowEdgeStyle&quot;,&quot;elbow&quot;:&quot;vertical&quot;,&quot;curved&quot;:0,&quot;rounded&quot;:0};" vertex="1" parent="1">
          <mxGeometry x="606.74" y="110" width="100" height="460" as="geometry" />
        </mxCell>
        <mxCell id="5PVqohLn76PKxdNZeTSt-8" value="" style="html=1;points=[];perimeter=orthogonalPerimeter;outlineConnect=0;targetShapes=umlLifeline;portConstraint=eastwest;newEdgeStyle={&quot;edgeStyle&quot;:&quot;elbowEdgeStyle&quot;,&quot;elbow&quot;:&quot;vertical&quot;,&quot;curved&quot;:0,&quot;rounded&quot;:0};" vertex="1" parent="5PVqohLn76PKxdNZeTSt-7">
          <mxGeometry x="45" y="320" width="10" height="100" as="geometry" />
        </mxCell>
        <mxCell id="5PVqohLn76PKxdNZeTSt-9" value="" style="endArrow=classic;html=1;rounded=0;" edge="1" parent="1">
          <mxGeometry width="50" height="50" relative="1" as="geometry">
            <mxPoint x="186.74" y="230" as="sourcePoint" />
            <mxPoint x="336.74" y="230" as="targetPoint" />
          </mxGeometry>
        </mxCell>
        <mxCell id="5PVqohLn76PKxdNZeTSt-10" value="Input Login Credentials" style="edgeLabel;html=1;align=center;verticalAlign=middle;resizable=0;points=[];" vertex="1" connectable="0" parent="5PVqohLn76PKxdNZeTSt-9">
          <mxGeometry x="0.3389" y="-2" relative="1" as="geometry">
            <mxPoint x="-33" y="8" as="offset" />
          </mxGeometry>
        </mxCell>
        <mxCell id="5PVqohLn76PKxdNZeTSt-11" value="" style="endArrow=classic;html=1;rounded=0;" edge="1" parent="1" target="5PVqohLn76PKxdNZeTSt-6">
          <mxGeometry width="50" height="50" relative="1" as="geometry">
            <mxPoint x="346.74" y="250" as="sourcePoint" />
            <mxPoint x="496.74" y="250" as="targetPoint" />
          </mxGeometry>
        </mxCell>
        <mxCell id="5PVqohLn76PKxdNZeTSt-12" value="Validate Credentials" style="edgeLabel;html=1;align=center;verticalAlign=middle;resizable=0;points=[];" vertex="1" connectable="0" parent="5PVqohLn76PKxdNZeTSt-11">
          <mxGeometry x="0.3389" y="-2" relative="1" as="geometry">
            <mxPoint x="-33" y="8" as="offset" />
          </mxGeometry>
        </mxCell>
        <mxCell id="5PVqohLn76PKxdNZeTSt-13" value="" style="endArrow=classic;html=1;rounded=0;dashed=1;" edge="1" parent="1">
          <mxGeometry width="50" height="50" relative="1" as="geometry">
            <mxPoint x="486.74" y="290" as="sourcePoint" />
            <mxPoint x="346.74" y="290" as="targetPoint" />
          </mxGeometry>
        </mxCell>
        <mxCell id="5PVqohLn76PKxdNZeTSt-14" value="Valid Credentials" style="edgeLabel;html=1;align=center;verticalAlign=middle;resizable=0;points=[];" vertex="1" connectable="0" parent="5PVqohLn76PKxdNZeTSt-13">
          <mxGeometry x="0.3389" y="-2" relative="1" as="geometry">
            <mxPoint x="24" y="12" as="offset" />
          </mxGeometry>
        </mxCell>
        <mxCell id="5PVqohLn76PKxdNZeTSt-15" value="" style="endArrow=none;dashed=1;html=1;rounded=0;exitX=-0.004;exitY=0.484;exitDx=0;exitDy=0;exitPerimeter=0;entryX=1.003;entryY=0.597;entryDx=0;entryDy=0;entryPerimeter=0;" edge="1" parent="1" source="5PVqohLn76PKxdNZeTSt-30">
          <mxGeometry width="50" height="50" relative="1" as="geometry">
            <mxPoint x="146.74000000000012" y="347.89999999999986" as="sourcePoint" />
            <mxPoint x="518.9599999999998" y="352.0999999999999" as="targetPoint" />
          </mxGeometry>
        </mxCell>
        <mxCell id="5PVqohLn76PKxdNZeTSt-16" value="" style="endArrow=classic;html=1;rounded=0;" edge="1" parent="1">
          <mxGeometry width="50" height="50" relative="1" as="geometry">
            <mxPoint x="336.74" y="320" as="sourcePoint" />
            <mxPoint x="186.74" y="320" as="targetPoint" />
          </mxGeometry>
        </mxCell>
        <mxCell id="5PVqohLn76PKxdNZeTSt-17" value="Redirect to user dashboard" style="edgeLabel;html=1;align=center;verticalAlign=middle;resizable=0;points=[];" vertex="1" connectable="0" parent="5PVqohLn76PKxdNZeTSt-16">
          <mxGeometry x="0.3389" y="-2" relative="1" as="geometry">
            <mxPoint x="24" y="12" as="offset" />
          </mxGeometry>
        </mxCell>
        <mxCell id="5PVqohLn76PKxdNZeTSt-18" value="" style="endArrow=classic;html=1;rounded=0;dashed=1;" edge="1" parent="1">
          <mxGeometry width="50" height="50" relative="1" as="geometry">
            <mxPoint x="486.74" y="360" as="sourcePoint" />
            <mxPoint x="346.74" y="360" as="targetPoint" />
          </mxGeometry>
        </mxCell>
        <mxCell id="5PVqohLn76PKxdNZeTSt-19" value="Invalid Credentials" style="edgeLabel;html=1;align=center;verticalAlign=middle;resizable=0;points=[];" vertex="1" connectable="0" parent="5PVqohLn76PKxdNZeTSt-18">
          <mxGeometry x="0.3389" y="-2" relative="1" as="geometry">
            <mxPoint x="24" y="12" as="offset" />
          </mxGeometry>
        </mxCell>
        <mxCell id="5PVqohLn76PKxdNZeTSt-20" value="" style="endArrow=classic;html=1;rounded=0;" edge="1" parent="1">
          <mxGeometry width="50" height="50" relative="1" as="geometry">
            <mxPoint x="186.74" y="460" as="sourcePoint" />
            <mxPoint x="336.74" y="460" as="targetPoint" />
          </mxGeometry>
        </mxCell>
        <mxCell id="5PVqohLn76PKxdNZeTSt-21" value="Clicks Current Flight" style="edgeLabel;html=1;align=center;verticalAlign=middle;resizable=0;points=[];" vertex="1" connectable="0" parent="5PVqohLn76PKxdNZeTSt-20">
          <mxGeometry x="0.3389" y="-2" relative="1" as="geometry">
            <mxPoint x="-33" y="8" as="offset" />
          </mxGeometry>
        </mxCell>
        <mxCell id="5PVqohLn76PKxdNZeTSt-22" value="" style="endArrow=classic;html=1;rounded=0;" edge="1" parent="1">
          <mxGeometry width="50" height="50" relative="1" as="geometry">
            <mxPoint x="346.74" y="480" as="sourcePoint" />
            <mxPoint x="646.74" y="480" as="targetPoint" />
          </mxGeometry>
        </mxCell>
        <mxCell id="5PVqohLn76PKxdNZeTSt-23" value="Retrieves Customer Flight Details" style="edgeLabel;html=1;align=center;verticalAlign=middle;resizable=0;points=[];" vertex="1" connectable="0" parent="5PVqohLn76PKxdNZeTSt-22">
          <mxGeometry x="0.3389" y="-2" relative="1" as="geometry">
            <mxPoint x="-33" y="8" as="offset" />
          </mxGeometry>
        </mxCell>
        <mxCell id="5PVqohLn76PKxdNZeTSt-24" value="" style="endArrow=classic;html=1;rounded=0;" edge="1" parent="1">
          <mxGeometry width="50" height="50" relative="1" as="geometry">
            <mxPoint x="651.74" y="510" as="sourcePoint" />
            <mxPoint x="346.74" y="510" as="targetPoint" />
          </mxGeometry>
        </mxCell>
        <mxCell id="5PVqohLn76PKxdNZeTSt-25" value="Returns Customer Flight Details" style="edgeLabel;html=1;align=center;verticalAlign=middle;resizable=0;points=[];" vertex="1" connectable="0" parent="5PVqohLn76PKxdNZeTSt-24">
          <mxGeometry x="0.3389" y="-2" relative="1" as="geometry">
            <mxPoint x="69" y="12" as="offset" />
          </mxGeometry>
        </mxCell>
        <mxCell id="5PVqohLn76PKxdNZeTSt-26" value="" style="endArrow=classic;html=1;rounded=0;dashed=1;" edge="1" parent="1">
          <mxGeometry width="50" height="50" relative="1" as="geometry">
            <mxPoint x="336.74" y="530" as="sourcePoint" />
            <mxPoint x="196.74" y="530" as="targetPoint" />
          </mxGeometry>
        </mxCell>
        <mxCell id="5PVqohLn76PKxdNZeTSt-27" value="Display Flight Schedule" style="edgeLabel;html=1;align=center;verticalAlign=middle;resizable=0;points=[];" vertex="1" connectable="0" parent="5PVqohLn76PKxdNZeTSt-26">
          <mxGeometry x="0.3389" y="-2" relative="1" as="geometry">
            <mxPoint x="24" y="12" as="offset" />
          </mxGeometry>
        </mxCell>
        <mxCell id="5PVqohLn76PKxdNZeTSt-28" value="" style="endArrow=none;dashed=1;html=1;rounded=0;entryX=0.5;entryY=0.5;entryDx=0;entryDy=0;entryPerimeter=0;" edge="1" parent="1" target="5PVqohLn76PKxdNZeTSt-29">
          <mxGeometry width="50" height="50" relative="1" as="geometry">
            <mxPoint x="182" y="590" as="sourcePoint" />
            <mxPoint x="186.74" y="160" as="targetPoint" />
          </mxGeometry>
        </mxCell>
        <mxCell id="5PVqohLn76PKxdNZeTSt-29" value="" style="rounded=0;whiteSpace=wrap;html=1;" vertex="1" parent="1">
          <mxGeometry x="176.74" y="210" width="10" height="360" as="geometry" />
        </mxCell>
        <mxCell id="5PVqohLn76PKxdNZeTSt-30" value="Alternative" style="shape=umlFrame;whiteSpace=wrap;html=1;pointerEvents=0;" vertex="1" parent="1">
          <mxGeometry x="81.74000000000001" y="280" width="435" height="140" as="geometry" />
        </mxCell>
        <mxCell id="5PVqohLn76PKxdNZeTSt-55" value="Are Credentials Valid?" style="text;html=1;strokeColor=none;fillColor=none;align=center;verticalAlign=middle;whiteSpace=wrap;rounded=0;" vertex="1" parent="1">
          <mxGeometry x="81.74000000000001" y="310" width="90" height="30" as="geometry" />
        </mxCell>
        <mxCell id="5PVqohLn76PKxdNZeTSt-56" value="ELSE" style="text;html=1;strokeColor=none;fillColor=none;align=center;verticalAlign=middle;whiteSpace=wrap;rounded=0;" vertex="1" parent="1">
          <mxGeometry x="81.74000000000001" y="350" width="90" height="30" as="geometry" />
        </mxCell>
      </root>
    </mxGraphModel>
  </diagram>
</mxfile>
